<svg xmlns="http://www.w3.org/2000/svg" xmlns:xlink="http://www.w3.org/1999/xlink" viewBox="0 0 75.56 56"><defs><style>.cls-1{fill:url(#linear-gradient);}.cls-2,.cls-3,.cls-4{stroke-miterlimit:10;}.cls-2{fill:url(#New_Gradient_Swatch);stroke:url(#New_Gradient_Swatch-2);}.cls-3{fill:url(#linear-gradient-2);stroke:url(#New_Gradient_Swatch-3);}.cls-4{fill:none;stroke:#fff;stroke-width:2px;}.cls-5{fill:#992923;}</style><linearGradient id="linear-gradient" x1="37.81" y1="2.65" x2="37.81" y2="67.24" gradientUnits="userSpaceOnUse"><stop offset="0" stop-color="#201e21"/><stop offset="0.93" stop-color="#1d1c1e"/></linearGradient><linearGradient id="New_Gradient_Swatch" x1="0.44" y1="41.81" x2="8.52" y2="41.81" gradientTransform="matrix(1, 0.03, -0.03, 1, 1.72, 3.46)" xlink:href="#linear-gradient"/><linearGradient id="New_Gradient_Swatch-2" x1="-0.06" y1="41.71" x2="9.02" y2="41.71" gradientTransform="matrix(1, 0.03, -0.03, 1, 1.72, 3.46)" xlink:href="#linear-gradient"/><linearGradient id="linear-gradient-2" x1="65.98" y1="45.85" x2="75.06" y2="45.85" xlink:href="#linear-gradient"/><linearGradient id="New_Gradient_Swatch-3" x1="65.44" y1="45.77" x2="75.56" y2="45.77" xlink:href="#linear-gradient"/></defs><g id="Layer_2" data-name="Layer 2"><g id="Layer_4" data-name="Layer 4"><path class="cls-1" d="M67.42,45.47H8.19c.11-1.26.24-2.56.37-3.89C9.57,31.3,11,16.86,22.12,7.13,24.72,4.87,30.06.34,37.79,0,47.38-.37,54.2,6,55.9,7.58c8.28,7.73,9.38,18,11.11,34C67.16,42.94,67.29,44.23,67.42,45.47Z"/><path class="cls-2" d="M9.11,35.73l-.28,8.49s-5,4-3.91,8.53-4.83,2-4.4-1.49S1.54,38.12,9.11,35.73Z"/><path class="cls-3" d="M66,36.21l.53,8.48s5.15,3.82,4.16,8.4,4.88,1.84,4.35-1.63S73.62,38.36,66,36.21Z"/><polyline class="cls-4" points="36.68 11.41 42.97 17.7 37.51 23.16 32.05 17.7 35.09 14.66 38.39 17.95 37.39 18.95"/><ellipse class="cls-5" cx="25.01" cy="28.51" rx="2.97" ry="4.08"/><ellipse class="cls-5" cx="50.01" cy="28.51" rx="2.97" ry="4.08"/><path class="cls-4" d="M29.23,38c.58,2.12,4.07,3.75,8.28,3.75S45.22,40.15,45.8,38"/></g></g></svg>