<svg xmlns="http://www.w3.org/2000/svg" xmlns:xlink="http://www.w3.org/1999/xlink" viewBox="0 0 97.28 84.82"><defs><style>.cls-1{fill:url(#linear-gradient);}.cls-2,.cls-3,.cls-6{stroke-miterlimit:10;}.cls-2{fill:url(#New_Gradient_Swatch);stroke:url(#New_Gradient_Swatch-2);}.cls-3{fill:none;stroke:#fff;stroke-width:2px;}.cls-4{fill:#992923;}.cls-5{fill:url(#New_Gradient_Swatch-3);}.cls-6{fill:url(#New_Gradient_Swatch-4);stroke:url(#New_Gradient_Swatch-5);}.cls-7{fill:url(#New_Gradient_Swatch-6);}</style><linearGradient id="linear-gradient" x1="46.34" y1="4.49" x2="46.34" y2="72.64" gradientUnits="userSpaceOnUse"><stop offset="0" stop-color="#201e21"/><stop offset="0.93" stop-color="#1d1c1e"/></linearGradient><linearGradient id="New_Gradient_Swatch" x1="2.27" y1="95.54" x2="10.76" y2="95.54" gradientTransform="matrix(1, -0.03, -0.03, -1, 1.75, 106)" xlink:href="#linear-gradient"/><linearGradient id="New_Gradient_Swatch-2" x1="1.77" y1="95.44" x2="11.26" y2="95.44" gradientTransform="matrix(1, -0.03, -0.03, -1, 1.75, 106)" xlink:href="#linear-gradient"/><linearGradient id="New_Gradient_Swatch-3" x1="6.14" y1="15.9" x2="14.13" y2="15.9" xlink:href="#linear-gradient"/><linearGradient id="New_Gradient_Swatch-4" x1="69.79" y1="93.21" x2="78.28" y2="93.21" gradientTransform="translate(163.1 106) rotate(-178.02)" xlink:href="#linear-gradient"/><linearGradient id="New_Gradient_Swatch-5" x1="69.29" y1="93.11" x2="78.78" y2="93.11" gradientTransform="translate(163.1 106) rotate(-178.02)" xlink:href="#linear-gradient"/><linearGradient id="New_Gradient_Swatch-6" x1="73.71" y1="15.9" x2="81.7" y2="15.9" gradientTransform="matrix(-1, 0, 0, 1, 164.85, 0)" xlink:href="#linear-gradient"/></defs><g id="Layer_2" data-name="Layer 2"><g id="Layer_5" data-name="Layer 5"><path class="cls-1" d="M75.38,43.26c1.62,15,2.42,22.55-2,29.21-8.09,12.2-24.94,12.36-27.24,12.35-2.82,0-16.3-.08-24.56-10-6.94-8.33-5.94-18.5-4.67-31.56,1-10.27,2.42-24.72,13.56-34.44,2.6-2.27,7.94-6.8,15.67-7.11,9.59-.39,16.41,6,18.11,7.55C72.55,17,73.65,27.22,75.38,43.26Z"/><path class="cls-2" d="M9.54,20l-.29-8.5S4,7.49,5.14,2.94.07,1,.52,4.44,1.59,17.58,9.54,20Z"/><polyline class="cls-3" points="45.05 13.1 51.34 19.39 45.88 24.85 40.42 19.39 43.46 16.35 46.75 19.64 45.75 20.64"/><ellipse class="cls-4" cx="33.38" cy="30.2" rx="4.08" ry="2.97" transform="translate(-1.82 58.26) rotate(-80.7)"/><ellipse class="cls-4" cx="58.38" cy="30.2" rx="2.97" ry="4.08" transform="translate(-4.81 12.11) rotate(-11.38)"/><path class="cls-3" d="M56.88,42.41c-.58,2.12-5.68-.18-9.9-.18S37.38,44,36.8,41.87"/><ellipse class="cls-5" cx="10.14" cy="15.9" rx="3.99" ry="4.73"/><path class="cls-6" d="M87.74,20l.3-8.5s5.28-4,4.1-8.53,5.07-2,4.62,1.5S95.69,17.58,87.74,20Z"/><ellipse class="cls-7" cx="87.14" cy="15.9" rx="3.99" ry="4.73"/></g></g></svg>